<svg xmlns="http://www.w3.org/2000/svg" viewBox="0 0 640 360" width="640" height="360"><title>玳瑁石斑 — 原創物種示意圖</title><defs><linearGradient id="body" x2="0" y2="1"><stop stop-color="#cfb88c"/><stop offset=".5" stop-color="#cfb88c"/><stop offset="1" stop-color="#edf0d7"/></linearGradient><clipPath id="clip"><path d="M105 180 Q160 125 285 145 Q410 150 477 171 L483 194 Q405 236 260 246 Q145 246 105 180Z"/></clipPath></defs><g stroke-linejoin="round"><path d="M205 163 L227 103 247 137 270 107 290 138 320 117 360 157 440 166" fill="#cfb88c" stroke="#685441" stroke-width="3"/><path d="M290 222 L340 278 379 224" fill="#cfb88c" stroke="#685441" stroke-width="3"/><path d="M446 171 Q525 128 551 146 Q574 180 551 226 Q507 230 447 199Z" fill="#cfb88c" stroke="#685441" stroke-width="3"/><path d="M105 180 Q160 125 285 145 Q410 150 477 171 L483 194 Q405 236 260 246 Q145 246 105 180Z" fill="url(#body)" stroke="#685441" stroke-width="3"/><g clip-path="url(#clip)"><circle cx="340" cy="160" r="11" fill="#685441" opacity=".8"/><circle cx="238" cy="114" r="14" fill="#685441" opacity=".8"/><circle cx="282" cy="131" r="17" fill="#685441" opacity=".8"/><circle cx="139" cy="150" r="15" fill="#685441" opacity=".8"/><circle cx="408" cy="146" r="15" fill="#685441" opacity=".8"/><circle cx="236" cy="114" r="13" fill="#685441" opacity=".8"/><circle cx="387" cy="132" r="10" fill="#685441" opacity=".8"/><circle cx="342" cy="130" r="10" fill="#685441" opacity=".8"/><circle cx="283" cy="207" r="11" fill="#685441" opacity=".8"/><circle cx="272" cy="143" r="17" fill="#685441" opacity=".8"/><circle cx="386" cy="125" r="9" fill="#685441" opacity=".8"/><circle cx="211" cy="217" r="13" fill="#685441" opacity=".8"/><circle cx="204" cy="113" r="12" fill="#685441" opacity=".8"/><circle cx="280" cy="210" r="11" fill="#685441" opacity=".8"/><circle cx="181" cy="231" r="15" fill="#685441" opacity=".8"/><circle cx="169" cy="115" r="13" fill="#685441" opacity=".8"/><circle cx="417" cy="123" r="16" fill="#685441" opacity=".8"/><circle cx="436" cy="173" r="14" fill="#685441" opacity=".8"/><circle cx="439" cy="162" r="16" fill="#685441" opacity=".8"/><circle cx="211" cy="99" r="12" fill="#685441" opacity=".8"/><circle cx="319" cy="236" r="12" fill="#685441" opacity=".8"/><circle cx="414" cy="142" r="10" fill="#685441" opacity=".8"/><circle cx="336" cy="250" r="13" fill="#685441" opacity=".8"/><circle cx="440" cy="142" r="16" fill="#685441" opacity=".8"/><circle cx="373" cy="109" r="10" fill="#685441" opacity=".8"/><circle cx="181" cy="251" r="17" fill="#685441" opacity=".8"/><circle cx="444" cy="151" r="11" fill="#685441" opacity=".8"/><circle cx="359" cy="118" r="16" fill="#685441" opacity=".8"/><circle cx="177" cy="124" r="15" fill="#685441" opacity=".8"/><circle cx="388" cy="199" r="15" fill="#685441" opacity=".8"/><circle cx="258" cy="247" r="14" fill="#685441" opacity=".8"/><circle cx="201" cy="178" r="15" fill="#685441" opacity=".8"/><circle cx="251" cy="180" r="16" fill="#685441" opacity=".8"/><circle cx="129" cy="203" r="16" fill="#685441" opacity=".8"/><circle cx="175" cy="142" r="13" fill="#685441" opacity=".8"/><circle cx="330" cy="228" r="11" fill="#685441" opacity=".8"/><circle cx="240" cy="240" r="10" fill="#685441" opacity=".8"/><circle cx="423" cy="197" r="15" fill="#685441" opacity=".8"/><circle cx="299" cy="184" r="9" fill="#685441" opacity=".8"/><circle cx="205" cy="179" r="17" fill="#685441" opacity=".8"/><circle cx="391" cy="198" r="12" fill="#685441" opacity=".8"/><circle cx="264" cy="205" r="13" fill="#685441" opacity=".8"/><circle cx="396" cy="128" r="13" fill="#685441" opacity=".8"/><circle cx="350" cy="215" r="10" fill="#685441" opacity=".8"/><circle cx="319" cy="98" r="9" fill="#685441" opacity=".8"/><circle cx="191" cy="215" r="9" fill="#685441" opacity=".8"/><circle cx="132" cy="218" r="11" fill="#685441" opacity=".8"/><circle cx="238" cy="195" r="13" fill="#685441" opacity=".8"/><circle cx="388" cy="161" r="16" fill="#685441" opacity=".8"/><circle cx="358" cy="151" r="14" fill="#685441" opacity=".8"/><circle cx="202" cy="112" r="17" fill="#685441" opacity=".8"/><circle cx="351" cy="106" r="14" fill="#685441" opacity=".8"/><circle cx="284" cy="137" r="17" fill="#685441" opacity=".8"/><circle cx="338" cy="252" r="11" fill="#685441" opacity=".8"/><circle cx="287" cy="203" r="13" fill="#685441" opacity=".8"/><circle cx="407" cy="237" r="14" fill="#685441" opacity=".8"/><circle cx="337" cy="151" r="13" fill="#685441" opacity=".8"/><circle cx="251" cy="141" r="10" fill="#685441" opacity=".8"/><circle cx="289" cy="184" r="10" fill="#685441" opacity=".8"/><circle cx="202" cy="151" r="10" fill="#685441" opacity=".8"/><circle cx="158" cy="135" r="12" fill="#685441" opacity=".8"/><circle cx="223" cy="213" r="14" fill="#685441" opacity=".8"/><circle cx="416" cy="123" r="9" fill="#685441" opacity=".8"/><circle cx="150" cy="112" r="10" fill="#685441" opacity=".8"/></g><path d="M188 142Q214 189 180 225M111 185l38 5" fill="none" stroke="#685441" stroke-width="3"/><path d="M216 182q63 4 83 34q-58 16-83-34" fill="#685441" opacity=".6"/><circle cx="157" cy="160" r="12" fill="#e6cc77"/><circle cx="155" cy="161" r="7" fill="#142c32"/><circle cx="152" cy="158" r="2.5" fill="white"/></g></svg>