<svg xmlns="http://www.w3.org/2000/svg" viewBox="0 0 640 360" width="640" height="360"><title>長尾芝麻斑 — 原創物種示意圖</title><defs><linearGradient id="body" x2="0" y2="1"><stop stop-color="#b9b5a0"/><stop offset=".5" stop-color="#b9b5a0"/><stop offset="1" stop-color="#edf0d7"/></linearGradient><clipPath id="clip"><path d="M105 180 Q160 125 285 145 Q410 150 477 171 L483 194 Q405 236 260 246 Q145 246 105 180Z"/></clipPath></defs><g stroke-linejoin="round"><path d="M205 163 L227 103 247 137 270 107 290 138 320 117 360 157 440 166" fill="#b9b5a0" stroke="#a8783e" stroke-width="3"/><path d="M290 222 L340 278 379 224" fill="#b9b5a0" stroke="#a8783e" stroke-width="3"/><path d="M446 171 Q525 128 551 146 Q574 180 551 226 Q507 230 447 199Z" fill="#b9b5a0" stroke="#a8783e" stroke-width="3"/><path d="M105 180 Q160 125 285 145 Q410 150 477 171 L483 194 Q405 236 260 246 Q145 246 105 180Z" fill="url(#body)" stroke="#a8783e" stroke-width="3"/><g clip-path="url(#clip)"><circle cx="388" cy="181" r="4" fill="#a8783e" opacity=".8"/><circle cx="276" cy="198" r="4" fill="#a8783e" opacity=".8"/><circle cx="426" cy="137" r="3" fill="#a8783e" opacity=".8"/><circle cx="337" cy="206" r="3" fill="#a8783e" opacity=".8"/><circle cx="352" cy="151" r="5" fill="#a8783e" opacity=".8"/><circle cx="361" cy="233" r="3" fill="#a8783e" opacity=".8"/><circle cx="213" cy="97" r="5" fill="#a8783e" opacity=".8"/><circle cx="149" cy="99" r="4" fill="#a8783e" opacity=".8"/><circle cx="275" cy="230" r="3" fill="#a8783e" opacity=".8"/><circle cx="395" cy="154" r="4" fill="#a8783e" opacity=".8"/><circle cx="204" cy="149" r="6" fill="#a8783e" opacity=".8"/><circle cx="245" cy="212" r="4" fill="#a8783e" opacity=".8"/><circle cx="450" cy="173" r="5" fill="#a8783e" opacity=".8"/><circle cx="156" cy="128" r="5" fill="#a8783e" opacity=".8"/><circle cx="315" cy="254" r="4" fill="#a8783e" opacity=".8"/><circle cx="271" cy="249" r="4" fill="#a8783e" opacity=".8"/><circle cx="198" cy="182" r="5" fill="#a8783e" opacity=".8"/><circle cx="231" cy="112" r="4" fill="#a8783e" opacity=".8"/><circle cx="302" cy="195" r="6" fill="#a8783e" opacity=".8"/><circle cx="211" cy="117" r="6" fill="#a8783e" opacity=".8"/><circle cx="419" cy="218" r="4" fill="#a8783e" opacity=".8"/><circle cx="297" cy="197" r="3" fill="#a8783e" opacity=".8"/><circle cx="369" cy="133" r="5" fill="#a8783e" opacity=".8"/><circle cx="262" cy="191" r="6" fill="#a8783e" opacity=".8"/><circle cx="155" cy="227" r="4" fill="#a8783e" opacity=".8"/><circle cx="440" cy="145" r="5" fill="#a8783e" opacity=".8"/><circle cx="138" cy="191" r="6" fill="#a8783e" opacity=".8"/><circle cx="266" cy="101" r="4" fill="#a8783e" opacity=".8"/><circle cx="395" cy="169" r="5" fill="#a8783e" opacity=".8"/><circle cx="404" cy="232" r="4" fill="#a8783e" opacity=".8"/><circle cx="159" cy="102" r="5" fill="#a8783e" opacity=".8"/><circle cx="299" cy="127" r="5" fill="#a8783e" opacity=".8"/><circle cx="206" cy="97" r="5" fill="#a8783e" opacity=".8"/><circle cx="329" cy="188" r="4" fill="#a8783e" opacity=".8"/><circle cx="190" cy="181" r="3" fill="#a8783e" opacity=".8"/><circle cx="397" cy="210" r="4" fill="#a8783e" opacity=".8"/><circle cx="130" cy="112" r="6" fill="#a8783e" opacity=".8"/><circle cx="375" cy="241" r="6" fill="#a8783e" opacity=".8"/><circle cx="188" cy="186" r="3" fill="#a8783e" opacity=".8"/><circle cx="169" cy="215" r="5" fill="#a8783e" opacity=".8"/><circle cx="171" cy="215" r="5" fill="#a8783e" opacity=".8"/><circle cx="388" cy="221" r="6" fill="#a8783e" opacity=".8"/><circle cx="251" cy="242" r="5" fill="#a8783e" opacity=".8"/><circle cx="386" cy="197" r="3" fill="#a8783e" opacity=".8"/><circle cx="321" cy="254" r="4" fill="#a8783e" opacity=".8"/><circle cx="193" cy="164" r="4" fill="#a8783e" opacity=".8"/><circle cx="336" cy="217" r="3" fill="#a8783e" opacity=".8"/><circle cx="130" cy="98" r="3" fill="#a8783e" opacity=".8"/><circle cx="286" cy="256" r="4" fill="#a8783e" opacity=".8"/><circle cx="159" cy="101" r="6" fill="#a8783e" opacity=".8"/><circle cx="278" cy="183" r="3" fill="#a8783e" opacity=".8"/><circle cx="426" cy="206" r="6" fill="#a8783e" opacity=".8"/><circle cx="438" cy="235" r="5" fill="#a8783e" opacity=".8"/><circle cx="444" cy="145" r="6" fill="#a8783e" opacity=".8"/><circle cx="224" cy="138" r="6" fill="#a8783e" opacity=".8"/><circle cx="141" cy="104" r="5" fill="#a8783e" opacity=".8"/><circle cx="300" cy="156" r="5" fill="#a8783e" opacity=".8"/><circle cx="344" cy="113" r="5" fill="#a8783e" opacity=".8"/><circle cx="345" cy="145" r="5" fill="#a8783e" opacity=".8"/><circle cx="141" cy="164" r="4" fill="#a8783e" opacity=".8"/><circle cx="275" cy="184" r="4" fill="#a8783e" opacity=".8"/><circle cx="178" cy="226" r="3" fill="#a8783e" opacity=".8"/><circle cx="255" cy="137" r="3" fill="#a8783e" opacity=".8"/><circle cx="395" cy="152" r="3" fill="#a8783e" opacity=".8"/></g><path d="M188 142Q214 189 180 225M111 185l38 5" fill="none" stroke="#a8783e" stroke-width="3"/><path d="M216 182q63 4 83 34q-58 16-83-34" fill="#a8783e" opacity=".6"/><circle cx="157" cy="160" r="12" fill="#e6cc77"/><circle cx="155" cy="161" r="7" fill="#142c32"/><circle cx="152" cy="158" r="2.5" fill="white"/></g></svg>