<svg xmlns="http://www.w3.org/2000/svg" viewBox="0 0 640 360" width="640" height="360"><title>西星斑 — 原創物種示意圖</title><defs><linearGradient id="body" x2="0" y2="1"><stop stop-color="#828d6a"/><stop offset=".5" stop-color="#828d6a"/><stop offset="1" stop-color="#edf0d7"/></linearGradient><clipPath id="clip"><path d="M105 180 Q160 125 285 145 Q410 150 477 171 L483 194 Q405 236 260 246 Q145 246 105 180Z"/></clipPath></defs><g stroke-linejoin="round"><path d="M205 163 L227 103 247 137 270 107 290 138 320 117 360 157 440 166" fill="#828d6a" stroke="#4ab7cb" stroke-width="3"/><path d="M290 222 L340 278 379 224" fill="#828d6a" stroke="#4ab7cb" stroke-width="3"/><path d="M446 171 Q525 128 551 146 Q574 180 551 226 Q507 230 447 199Z" fill="#828d6a" stroke="#4ab7cb" stroke-width="3"/><path d="M105 180 Q160 125 285 145 Q410 150 477 171 L483 194 Q405 236 260 246 Q145 246 105 180Z" fill="url(#body)" stroke="#4ab7cb" stroke-width="3"/><g clip-path="url(#clip)"><circle cx="248" cy="236" r="6" fill="#4ab7cb" opacity=".8"/><circle cx="262" cy="162" r="5" fill="#4ab7cb" opacity=".8"/><circle cx="299" cy="140" r="5" fill="#4ab7cb" opacity=".8"/><circle cx="127" cy="168" r="3" fill="#4ab7cb" opacity=".8"/><circle cx="160" cy="196" r="4" fill="#4ab7cb" opacity=".8"/><circle cx="333" cy="187" r="5" fill="#4ab7cb" opacity=".8"/><circle cx="155" cy="247" r="3" fill="#4ab7cb" opacity=".8"/><circle cx="201" cy="97" r="3" fill="#4ab7cb" opacity=".8"/><circle cx="422" cy="215" r="4" fill="#4ab7cb" opacity=".8"/><circle cx="387" cy="141" r="5" fill="#4ab7cb" opacity=".8"/><circle cx="175" cy="104" r="4" fill="#4ab7cb" opacity=".8"/><circle cx="194" cy="174" r="3" fill="#4ab7cb" opacity=".8"/><circle cx="402" cy="252" r="3" fill="#4ab7cb" opacity=".8"/><circle cx="314" cy="248" r="5" fill="#4ab7cb" opacity=".8"/><circle cx="294" cy="159" r="6" fill="#4ab7cb" opacity=".8"/><circle cx="189" cy="232" r="5" fill="#4ab7cb" opacity=".8"/><circle cx="232" cy="244" r="4" fill="#4ab7cb" opacity=".8"/><circle cx="292" cy="122" r="4" fill="#4ab7cb" opacity=".8"/><circle cx="267" cy="136" r="6" fill="#4ab7cb" opacity=".8"/><circle cx="197" cy="103" r="6" fill="#4ab7cb" opacity=".8"/><circle cx="443" cy="171" r="4" fill="#4ab7cb" opacity=".8"/><circle cx="293" cy="143" r="3" fill="#4ab7cb" opacity=".8"/><circle cx="365" cy="196" r="4" fill="#4ab7cb" opacity=".8"/><circle cx="143" cy="214" r="6" fill="#4ab7cb" opacity=".8"/><circle cx="432" cy="100" r="3" fill="#4ab7cb" opacity=".8"/><circle cx="440" cy="221" r="3" fill="#4ab7cb" opacity=".8"/><circle cx="173" cy="165" r="5" fill="#4ab7cb" opacity=".8"/><circle cx="371" cy="131" r="5" fill="#4ab7cb" opacity=".8"/><circle cx="187" cy="115" r="4" fill="#4ab7cb" opacity=".8"/><circle cx="443" cy="123" r="4" fill="#4ab7cb" opacity=".8"/><circle cx="346" cy="205" r="6" fill="#4ab7cb" opacity=".8"/><circle cx="452" cy="242" r="3" fill="#4ab7cb" opacity=".8"/><circle cx="131" cy="125" r="4" fill="#4ab7cb" opacity=".8"/><circle cx="309" cy="138" r="5" fill="#4ab7cb" opacity=".8"/><circle cx="182" cy="252" r="6" fill="#4ab7cb" opacity=".8"/><circle cx="441" cy="116" r="4" fill="#4ab7cb" opacity=".8"/><circle cx="304" cy="245" r="4" fill="#4ab7cb" opacity=".8"/><circle cx="137" cy="184" r="4" fill="#4ab7cb" opacity=".8"/><circle cx="161" cy="152" r="4" fill="#4ab7cb" opacity=".8"/><circle cx="181" cy="165" r="3" fill="#4ab7cb" opacity=".8"/><circle cx="404" cy="99" r="6" fill="#4ab7cb" opacity=".8"/><circle cx="175" cy="243" r="5" fill="#4ab7cb" opacity=".8"/><circle cx="190" cy="204" r="3" fill="#4ab7cb" opacity=".8"/><circle cx="397" cy="118" r="6" fill="#4ab7cb" opacity=".8"/><circle cx="242" cy="183" r="3" fill="#4ab7cb" opacity=".8"/><circle cx="328" cy="157" r="3" fill="#4ab7cb" opacity=".8"/><circle cx="409" cy="242" r="3" fill="#4ab7cb" opacity=".8"/><circle cx="203" cy="172" r="4" fill="#4ab7cb" opacity=".8"/><circle cx="396" cy="142" r="6" fill="#4ab7cb" opacity=".8"/><circle cx="194" cy="144" r="5" fill="#4ab7cb" opacity=".8"/><circle cx="339" cy="177" r="6" fill="#4ab7cb" opacity=".8"/><circle cx="359" cy="215" r="4" fill="#4ab7cb" opacity=".8"/><circle cx="187" cy="227" r="6" fill="#4ab7cb" opacity=".8"/><circle cx="419" cy="185" r="4" fill="#4ab7cb" opacity=".8"/><circle cx="185" cy="192" r="3" fill="#4ab7cb" opacity=".8"/><circle cx="254" cy="101" r="4" fill="#4ab7cb" opacity=".8"/><circle cx="271" cy="177" r="5" fill="#4ab7cb" opacity=".8"/><circle cx="259" cy="152" r="3" fill="#4ab7cb" opacity=".8"/><circle cx="130" cy="232" r="6" fill="#4ab7cb" opacity=".8"/><circle cx="363" cy="211" r="6" fill="#4ab7cb" opacity=".8"/><circle cx="417" cy="149" r="4" fill="#4ab7cb" opacity=".8"/><circle cx="232" cy="240" r="6" fill="#4ab7cb" opacity=".8"/><circle cx="331" cy="168" r="6" fill="#4ab7cb" opacity=".8"/><circle cx="424" cy="239" r="3" fill="#4ab7cb" opacity=".8"/></g><path d="M188 142Q214 189 180 225M111 185l38 5" fill="none" stroke="#4ab7cb" stroke-width="3"/><path d="M216 182q63 4 83 34q-58 16-83-34" fill="#4ab7cb" opacity=".6"/><circle cx="157" cy="160" r="12" fill="#e6cc77"/><circle cx="155" cy="161" r="7" fill="#142c32"/><circle cx="152" cy="158" r="2.5" fill="white"/></g></svg>